<svg xmlns="http://www.w3.org/2000/svg" width="100" height="80" viewBox="0 0 100 80"><rect width="100%" height="100%" fill="#DDDDDD"/><path fill="#999999" d="M24.145 44.305h2.08v1.48h-6.4v-1.48h2.35v-6.74q0-.4.02-.83l-1.66 1.39q-.15.12-.29.14-.14.03-.26.01-.13-.03-.22-.09-.1-.06-.15-.13l-.62-.85 3.53-3h1.62zm11.96-4.3q0 1.51-.32 2.62-.33 1.12-.9 1.85t-1.35 1.08q-.78.36-1.68.36-.91 0-1.68-.36-.77-.35-1.34-1.08t-.89-1.85q-.32-1.11-.32-2.62 0-1.52.32-2.64.32-1.11.89-1.84.57-.72 1.34-1.08t1.68-.36q.9 0 1.68.36t1.35 1.08q.57.73.9 1.84.32 1.12.32 2.64m-2.04 0q0-1.26-.18-2.08-.19-.83-.49-1.32-.31-.48-.71-.68t-.83-.2-.82.2q-.4.2-.7.68-.31.49-.49 1.32-.18.82-.18 2.08 0 1.25.18 2.08.18.82.49 1.31.3.49.7.68.39.2.82.2t.83-.2q.4-.19.71-.68.3-.49.49-1.31.18-.83.18-2.08m11.32 0q0 1.51-.32 2.62-.33 1.12-.9 1.85t-1.35 1.08q-.78.36-1.68.36-.91 0-1.68-.36-.77-.35-1.34-1.08t-.89-1.85q-.32-1.11-.32-2.62 0-1.52.32-2.64.32-1.11.89-1.84.57-.72 1.34-1.08t1.68-.36q.9 0 1.68.36t1.35 1.08q.57.73.9 1.84.32 1.12.32 2.64m-2.04 0q0-1.26-.18-2.08-.19-.83-.49-1.32-.31-.48-.71-.68t-.83-.2-.82.2q-.4.2-.7.68-.31.49-.49 1.32-.18.82-.18 2.08 0 1.25.18 2.08.18.82.49 1.31.3.49.7.68.39.2.82.2t.83-.2q.4-.19.71-.68.3-.49.49-1.31.18-.83.18-2.08m14.75 3.13-1.05 1.03-2.71-2.71-2.74 2.73-1.05-1.03 2.74-2.75-2.61-2.6 1.04-1.04 2.61 2.6 2.59-2.59 1.06 1.04-2.6 2.6zm9.39 1.23q.49 0 .85-.14.37-.14.62-.38.26-.25.38-.6.13-.34.13-.74 0-.95-.53-1.44-.52-.49-1.45-.49t-1.46.49-.53 1.44q0 .4.13.74.13.35.38.6.25.24.62.38t.86.14m0-8.79q-.44 0-.76.14-.32.13-.53.36-.22.23-.32.53-.1.29-.1.62 0 .34.09.67.08.32.28.57.2.26.53.41t.81.15.81-.15q.32-.15.52-.41.2-.25.29-.57.08-.33.08-.67 0-.33-.1-.62-.11-.3-.31-.53-.21-.23-.53-.36-.32-.14-.76-.14m1.95 4.18q1.06.34 1.56 1.05t.5 1.73q0 .77-.29 1.39-.29.63-.82 1.07t-1.27.68-1.63.24q-.9 0-1.64-.24t-1.27-.68q-.52-.44-.82-1.07-.29-.62-.29-1.39 0-1.02.51-1.73.5-.71 1.56-1.05-.84-.35-1.26-1t-.42-1.56q0-.66.26-1.23.27-.56.75-.98t1.15-.66 1.47-.24 1.47.24q.66.24 1.14.66t.75.98q.27.57.27 1.23 0 .91-.42 1.56t-1.26 1m11.57.25q0 1.51-.33 2.62-.32 1.12-.89 1.85t-1.35 1.08q-.78.36-1.69.36-.9 0-1.67-.36-.78-.35-1.34-1.08-.57-.73-.89-1.85-.32-1.11-.32-2.62 0-1.52.32-2.64.32-1.11.89-1.84.56-.72 1.34-1.08.77-.36 1.67-.36.91 0 1.69.36t1.35 1.08q.57.73.89 1.84.33 1.12.33 2.64m-2.04 0q0-1.26-.19-2.08-.18-.83-.49-1.32-.31-.48-.71-.68t-.83-.2q-.42 0-.82.2-.39.2-.7.68-.3.49-.48 1.32-.18.82-.18 2.08 0 1.25.18 2.08.18.82.48 1.31.31.49.7.68.4.2.82.2.43 0 .83-.2.4-.19.71-.68t.49-1.31q.19-.83.19-2.08"/></svg>