<svg width="455" height="455" viewBox="0 0 455 455" fill="none" xmlns="http://www.w3.org/2000/svg">
<path d="M411.015 106.433C409.488 103.89 407.9 101.395 406.242 98.9561C384.149 66.4955 347.371 44.2715 311.628 34.2069C295.97 29.7907 279.893 27.4811 263.843 26.8905C158.576 23.0658 119.905 109.86 85.988 132.238C52.0723 154.617 0.0257206 192.842 6.55679 273.138C11.5127 334.19 46.2428 392.566 109.674 419.131C116.66 422.066 124.002 424.614 131.688 426.727C145.986 430.66 161.482 433.13 178.179 433.873C226.136 436.009 265.076 424.449 303.165 395.339C312.018 388.572 320.825 380.94 332.315 380.103C340.667 379.495 348.585 382.496 339.855 390.567C329.595 400.054 341.433 418.713 367.479 405.75C410.98 384.099 428.874 337.388 437.304 289.89C447.653 231.586 442.637 159.081 411.015 106.433Z" fill="#5825BC"/>
<path opacity="0.7" d="M411.015 106.433C409.488 103.89 407.9 101.395 406.242 98.9561C384.149 66.4955 347.371 44.2715 311.628 34.2069C295.97 29.7907 279.893 27.4811 263.843 26.8905C158.576 23.0658 119.905 109.86 85.988 132.238C52.0723 154.617 0.0257206 192.842 6.55679 273.138C11.5127 334.19 46.2428 392.566 109.674 419.131C116.66 422.066 124.002 424.614 131.688 426.727C145.986 430.66 161.482 433.13 178.179 433.873C226.136 436.009 265.076 424.449 303.165 395.339C312.018 388.572 320.825 380.94 332.315 380.103C340.667 379.495 348.585 382.496 339.855 390.567C329.595 400.054 341.433 418.713 367.479 405.75C410.98 384.099 428.874 337.388 437.304 289.89C447.653 231.586 442.637 159.081 411.015 106.433Z" fill="white"/>
<path d="M187.635 419.091C184.267 419.091 180.782 419.013 177.277 418.856C162.112 418.182 147.565 415.954 134.037 412.233C127.142 410.337 120.396 408.009 113.981 405.315C60.6068 382.962 25.8257 333.517 20.9162 273.04C18.3819 241.881 25.276 215.665 41.9909 192.892C56.1086 173.658 74.9256 159.874 93.1584 147.845C105.049 139.999 115.664 128.121 127.954 114.367C156.847 82.0338 192.808 41.7936 258.556 41.7936C260.571 41.7936 262.63 41.8318 264.679 41.9055C280.166 42.4752 295.056 44.7474 308.925 48.6595C344.551 58.6904 376.503 80.383 394.406 106.688C395.832 108.786 397.264 111.03 398.658 113.351C430.21 165.883 431.945 238.157 423.05 288.278C414.236 337.939 397.94 369.587 372.127 386.74C371.756 384.48 371.162 382.615 370.638 381.28C366.082 369.639 354.285 362.69 339.08 362.69C337.807 362.69 336.506 362.737 335.214 362.832C317.205 364.142 304.131 374.257 294.585 381.641C293.768 382.273 292.953 382.904 292.137 383.528C259.957 408.124 227.726 419.091 187.635 419.091Z" fill="#263238"/>
<path d="M329.904 96.0663C332.263 96.0663 334.175 94.1539 334.175 91.7948C334.175 89.4357 332.263 87.5232 329.904 87.5232C327.545 87.5232 325.632 89.4357 325.632 91.7948C325.632 94.1539 327.545 96.0663 329.904 96.0663Z" fill="#B2B2B2"/>
<path d="M401.377 168.289C403.736 168.289 405.648 166.377 405.648 164.017C405.648 161.658 403.736 159.746 401.377 159.746C399.017 159.746 397.105 161.658 397.105 164.017C397.105 166.377 399.017 168.289 401.377 168.289Z" fill="#B2B2B2"/>
<path d="M106.275 370.637C108.635 370.637 110.547 368.724 110.547 366.365C110.547 364.006 108.635 362.094 106.275 362.094C103.916 362.094 102.004 364.006 102.004 366.365C102.004 368.724 103.916 370.637 106.275 370.637Z" fill="#B2B2B2"/>
<path d="M366.253 366.93C368.612 366.93 370.525 365.017 370.525 362.658C370.525 360.299 368.612 358.387 366.253 358.387C363.894 358.387 361.981 360.299 361.981 362.658C361.981 365.017 363.894 366.93 366.253 366.93Z" fill="#B2B2B2"/>
<path d="M226.124 54.6164C226.124 55.9632 225.032 57.0543 223.686 57.0543C222.339 57.0543 221.248 55.9623 221.248 54.6164C221.248 53.2696 222.34 52.1785 223.686 52.1785C225.032 52.1785 226.124 53.2696 226.124 54.6164Z" fill="#B2B2B2"/>
<path d="M56.4219 206.134C58.781 206.134 60.6935 204.221 60.6935 201.862C60.6935 199.503 58.781 197.591 56.4219 197.591C54.0628 197.591 52.1504 199.503 52.1504 201.862C52.1504 204.221 54.0628 206.134 56.4219 206.134Z" fill="#B2B2B2"/>
<path d="M364.218 97.0932C365.388 97.0932 366.337 96.1447 366.337 94.9747C366.337 93.8047 365.388 92.8562 364.218 92.8562C363.048 92.8562 362.1 93.8047 362.1 94.9747C362.1 96.1447 363.048 97.0932 364.218 97.0932Z" fill="#B2B2B2"/>
<path d="M88.2218 304.094C88.2218 305.264 87.2736 306.212 86.1033 306.212C84.9331 306.212 83.9849 305.264 83.9849 304.094C83.9849 302.924 84.9331 301.975 86.1033 301.975C87.2736 301.975 88.2218 302.924 88.2218 304.094Z" fill="#B2B2B2"/>
<path d="M175.96 405.656C175.96 406.827 175.012 407.775 173.842 407.775C172.671 407.775 171.723 406.827 171.723 405.656C171.723 404.486 172.671 403.538 173.842 403.538C175.012 403.538 175.96 404.486 175.96 405.656Z" fill="#B2B2B2"/>
<path d="M301.598 295.945C301.598 297.116 300.65 298.064 299.48 298.064C298.31 298.064 297.361 297.116 297.361 295.945C297.361 294.775 298.31 293.827 299.48 293.827C300.65 293.827 301.598 294.776 301.598 295.945Z" fill="#B2B2B2"/>
<path d="M398.867 213.601C398.867 214.771 397.919 215.719 396.749 215.719C395.579 215.719 394.63 214.771 394.63 213.601C394.63 212.43 395.579 211.482 396.749 211.482C397.919 211.482 398.867 212.43 398.867 213.601Z" fill="#B2B2B2"/>
<path d="M240.909 392.927C242.08 392.927 243.028 391.979 243.028 390.809C243.028 389.639 242.08 388.69 240.909 388.69C239.739 388.69 238.791 389.639 238.791 390.809C238.791 391.979 239.739 392.927 240.909 392.927Z" fill="#B2B2B2"/>
<path d="M79.119 339.967C80.289 339.967 81.2375 339.019 81.2375 337.849C81.2375 336.679 80.289 335.73 79.119 335.73C77.949 335.73 77.0005 336.679 77.0005 337.849C77.0005 339.019 77.949 339.967 79.119 339.967Z" fill="#5825BC"/>
<path d="M391.851 322.507C393.021 322.507 393.97 321.559 393.97 320.389C393.97 319.219 393.021 318.27 391.851 318.27C390.681 318.27 389.733 319.219 389.733 320.389C389.733 321.559 390.681 322.507 391.851 322.507Z" fill="#5825BC"/>
<path d="M196.785 378.856C196.785 380.026 195.837 380.974 194.666 380.974C193.496 380.974 192.548 380.026 192.548 378.856C192.548 377.685 193.496 376.737 194.666 376.737C195.837 376.736 196.785 377.685 196.785 378.856Z" fill="#5825BC"/>
<path d="M297.944 64.3175C297.944 65.4877 296.996 66.436 295.826 66.436C294.655 66.436 293.707 65.4877 293.707 64.3175C293.707 63.1472 294.655 62.199 295.826 62.199C296.995 62.199 297.944 63.1472 297.944 64.3175Z" fill="#5825BC"/>
<path d="M52.1702 296.901C53.3402 296.901 54.2887 295.952 54.2887 294.782C54.2887 293.612 53.3402 292.664 52.1702 292.664C51.0002 292.664 50.0518 293.612 50.0518 294.782C50.0518 295.952 51.0002 296.901 52.1702 296.901Z" fill="#5825BC"/>
<path d="M164.088 310.287C165.258 310.287 166.207 309.338 166.207 308.168C166.207 306.998 165.258 306.05 164.088 306.05C162.918 306.05 161.97 306.998 161.97 308.168C161.97 309.338 162.918 310.287 164.088 310.287Z" fill="#5825BC"/>
<path d="M305.3 137.066C305.3 138.237 304.352 139.185 303.182 139.185C302.012 139.185 301.063 138.237 301.063 137.066C301.063 135.896 302.012 134.948 303.182 134.948C304.352 134.948 305.3 135.896 305.3 137.066Z" fill="#5825BC"/>
<path d="M110.855 329.567V284.92H56.5615V258.447L103.9 147.843H140.02V260.242H158.642V284.92H140.02V329.567H110.855ZM82.5866 260.243H110.855V181.272L82.5866 260.243ZM222.355 332.259C211.735 332.259 202.949 330.016 195.994 325.529C189.04 321.043 183.802 314.837 180.29 306.908C176.774 298.981 175.018 289.857 175.018 279.537V198.995C175.018 188.376 176.701 179.065 180.066 171.064C183.431 163.065 188.591 156.817 195.546 152.33C202.5 147.843 211.436 145.6 222.355 145.6C233.272 145.6 242.212 147.843 249.166 152.33C256.12 156.817 261.281 163.065 264.646 171.064C268.011 179.066 269.694 188.377 269.694 198.995V279.537C269.694 289.857 267.935 298.981 264.422 306.908C260.907 314.836 255.671 321.042 248.717 325.529C241.763 330.015 232.974 332.259 222.355 332.259ZM222.355 305.562C226.99 305.562 230.433 304.142 232.676 301.298C234.919 298.459 236.412 295.017 237.162 290.979C237.908 286.94 238.284 282.978 238.284 279.088V199.444C238.284 195.257 237.947 191.107 237.275 186.992C236.601 182.881 235.144 179.402 232.9 176.559C230.657 173.72 227.141 172.297 222.355 172.297C217.567 172.297 214.054 173.72 211.811 176.559C209.568 179.402 208.109 182.88 207.437 186.992C206.763 191.107 206.428 195.258 206.428 199.444V279.088C206.428 282.978 206.837 286.94 207.662 290.979C208.481 295.017 210.018 298.459 212.261 301.298C214.504 304.142 217.869 305.562 222.355 305.562ZM343.73 329.567V284.92H289.435V258.447L336.775 147.843H372.893V260.242H391.513V284.92H372.893V329.567H343.73ZM315.46 260.243H343.73V181.272L315.46 260.243Z" fill="#5825BC" stroke="#263238" stroke-miterlimit="10"/>
<g opacity="0.3">
<path d="M243.136 258.824C243.136 258.824 244.037 265.636 243.984 272.551C243.932 279.467 245.555 279.612 248.852 280.379C252.149 281.146 257.77 276.678 259.21 272.184C260.65 267.688 260.513 259.026 260.513 259.026L243.136 258.824Z" fill="black" stroke="black" stroke-miterlimit="10"/>
<path d="M258.182 267.152C258.034 270.222 257.122 275.141 252.564 277.565C248.701 279.619 245.342 277.809 244.408 277.211C245.083 279.613 246.565 279.848 248.852 280.379C252.149 281.145 257.77 276.678 259.21 272.183C260.65 267.687 260.512 259.025 260.512 259.025L258.483 259.001C258.409 261.276 258.282 265.088 258.182 267.152Z" fill="black" stroke="black" stroke-miterlimit="10"/>
<path d="M227.454 265.348C227.454 265.348 232.905 265.238 240.322 262.504C247.738 259.77 256.063 253.562 254.279 247.49C252.494 241.417 242.83 239.735 239.019 240.149C235.207 240.563 230.829 241.681 230.829 241.681C230.829 241.681 231.722 258.778 227.454 265.348Z" fill="black" stroke="black" stroke-miterlimit="10"/>
<path d="M223.866 267.827C223.866 267.827 228.738 266.816 231.693 262.959C234.649 259.102 235.74 252.878 234.163 248.71C232.586 244.542 223.866 267.827 223.866 267.827Z" fill="black" stroke="black" stroke-miterlimit="10"/>
<path d="M194.625 227.937C194.625 227.937 191.769 241.585 197.399 254.954C203.029 268.323 215.265 271.493 223.866 267.827C232.468 264.16 234.525 252.045 234.616 244.001C234.706 235.957 234.469 232.287 234.469 232.287C234.469 232.287 205.529 235.109 194.625 227.937Z" fill="black" stroke="black" stroke-miterlimit="10"/>
<path d="M193.576 224.194C193.576 224.194 192.295 228.672 194.885 230.319C197.475 231.966 210.863 239.832 226.766 236.819C235.645 235.137 233.692 232.531 233.537 231.102C233.381 229.672 193.576 224.194 193.576 224.194Z" fill="black" stroke="black" stroke-miterlimit="10"/>
<path d="M191.406 210.128C191.406 210.128 191.803 221.173 193.576 224.194C195.351 227.215 218.845 236.393 230.778 233.812C242.711 231.23 262.125 220.604 264.491 212.794C266.856 204.985 260.706 192.697 254.919 186.788C249.133 180.878 246.595 179.708 246.595 179.708C246.595 179.708 232.417 198.603 214.777 204.858C197.137 211.113 191.406 210.128 191.406 210.128Z" fill="black" stroke="black" stroke-miterlimit="10"/>
<path d="M285.069 238.038C285.069 238.038 297.555 233.147 302.54 236.14C307.525 239.134 311.337 246.112 313.956 256.916C316.576 267.719 308.918 275.622 302.303 275.376C295.688 275.13 296.827 270.829 294.262 266.447C291.697 262.065 288.528 259.517 288.317 259.058C288.107 258.598 291.263 244.757 285.069 238.038Z" fill="black" stroke="black" stroke-miterlimit="10"/>
<path d="M302.54 236.14C301.207 235.341 299.338 235.107 297.315 235.19C299.841 237.06 304.833 241.628 308.097 250.321C312.619 262.364 310.575 268.693 308.258 271.033C305.941 273.374 301.053 274.227 298.936 273.975C298.589 273.934 298.184 273.885 297.751 273.834C298.658 274.723 300.017 275.292 302.302 275.377C308.918 275.623 316.576 267.72 313.956 256.917C311.337 246.112 307.526 239.133 302.54 236.14Z" fill="black" stroke="black" stroke-miterlimit="10"/>
<path d="M258.672 268.706C258.672 268.706 270.448 272.086 281.38 267.686C292.311 263.284 298.751 255.996 296.338 247.099C293.925 238.201 289.392 237.89 279.441 238.007C269.491 238.123 267.494 238.983 267.494 238.983C267.494 238.983 267.169 264.087 258.672 268.706Z" fill="black" stroke="black" stroke-miterlimit="10"/>
<path d="M271.646 226.131C272.778 214.14 264.723 203.573 253.655 202.528C242.587 201.483 232.697 210.356 231.564 222.347C230.432 234.337 238.487 244.904 249.555 245.949C260.623 246.994 270.514 238.121 271.646 226.131Z" fill="black" stroke="black" stroke-miterlimit="10"/>
<path d="M275.91 251.32C276.937 240.444 269.631 230.859 259.592 229.911C249.552 228.963 240.581 237.011 239.555 247.887C238.528 258.763 245.834 268.349 255.873 269.296C265.913 270.244 274.884 262.196 275.91 251.32Z" fill="black" stroke="black" stroke-miterlimit="10"/>
<path d="M273.372 238.344C273.372 238.344 274.191 220.74 265.588 211.068C256.985 201.397 237.435 209.305 234.189 223.799C230.943 238.293 237.805 260.045 246.772 265.659C255.738 271.274 263.337 265.787 268.437 258.002C273.537 250.218 273.372 238.344 273.372 238.344Z" fill="black" stroke="black" stroke-miterlimit="10"/>
<path d="M151.874 189.028C151.874 189.028 145.068 205.504 143.392 210.204C141.717 214.903 139.961 220.194 140.001 223.249C140.042 226.305 141.919 230.181 143.39 230.313C144.862 230.445 145.92 229.456 146.133 227.392C146.346 225.329 146.252 224.464 147.295 223.331C148.338 222.198 151.59 219.951 152.007 219.76C152.424 219.568 152.74 221.137 151.76 222.846C150.78 224.555 148.617 226.102 149.972 227.849C151.327 229.596 154.019 227.555 155.462 226.086C156.906 224.618 158.384 222.126 158.981 219.584C159.579 217.042 159.289 211.682 159.289 211.682L171.315 200.322C171.315 200.322 155.371 198.411 151.874 189.028Z" fill="black" stroke="black" stroke-miterlimit="10"/>
<path d="M152.627 221.44C152.627 221.44 152.445 223.792 156.829 223.898" stroke="black" stroke-miterlimit="10"/>
<path d="M141.05 219.492C141.05 219.492 142.27 224.022 147.295 223.33" stroke="black" stroke-miterlimit="10"/>
<path d="M140.652 225.808C140.652 225.808 143.622 228.111 145.882 225.615" stroke="black" stroke-miterlimit="10"/>
<path d="M146.822 203.2C146.822 203.2 146.425 212.228 159.29 211.682" stroke="black" stroke-miterlimit="10"/>
<path d="M155.278 184.141C155.278 184.141 152.078 184.198 151.874 189.028C151.671 193.858 155.54 201.307 162.959 202.541C170.379 203.774 174.997 199.338 176.35 195.695C177.703 192.051 160.356 181.258 155.278 184.141Z" fill="black" stroke="black" stroke-miterlimit="10"/>
<path d="M163.612 170.996C163.612 170.996 155.751 180.448 154.38 185.259C153.008 190.071 156.442 198.877 165.158 199.971C173.874 201.064 179.058 193.798 179.058 193.798L163.612 170.996Z" fill="black" stroke="black" stroke-miterlimit="10"/>
<path d="M168.113 163.367C168.113 163.367 162.495 168.117 162.106 175.827C161.716 183.536 168.816 192.425 178.079 191.571C187.341 190.72 175.741 162.998 168.113 163.367Z" fill="black" stroke="black" stroke-miterlimit="10"/>
<path d="M171.985 169.079C171.985 169.079 167.861 174.044 170.225 182.384C172.588 190.724 178.479 195.33 178.479 195.33C178.479 195.33 189.877 211.722 194.67 214.262C199.463 216.801 207.925 216.902 225.091 209.938C242.258 202.973 249.017 192.768 251.653 187.527C254.29 182.287 238.848 158.173 233.513 154.673C228.179 151.172 221.206 150.035 216.167 150.583C211.126 151.131 206.453 152.367 206.453 152.367L171.985 169.079Z" fill="black" stroke="black" stroke-miterlimit="10"/>
<path d="M168.935 166.338C168.935 166.338 164.812 171.303 167.175 179.643C169.539 187.983 175.43 192.589 175.43 192.589C175.43 192.589 186.828 208.981 191.621 211.521C196.414 214.06 204.876 214.161 222.042 207.197C239.208 200.233 245.968 190.027 248.604 184.786C251.24 179.546 235.798 155.433 230.464 151.932C225.13 148.431 218.158 147.294 213.117 147.842C208.076 148.39 203.402 149.626 203.402 149.626L168.935 166.338Z" fill="black" stroke="black" stroke-miterlimit="10"/>
<path d="M210.151 156.98C214.074 143.211 206.092 128.868 192.322 124.945C178.552 121.022 164.21 129.004 160.287 142.773C156.363 156.543 164.346 170.886 178.115 174.809C191.885 178.732 206.228 170.75 210.151 156.98Z" fill="black" stroke="black" stroke-miterlimit="10"/>
<path d="M204.484 161.246C214.497 148.551 212.322 130.143 199.627 120.13C186.932 110.117 168.524 112.291 158.511 124.986C148.498 137.682 150.672 156.09 163.367 166.103C176.062 176.116 194.471 173.941 204.484 161.246Z" fill="black" stroke="black" stroke-miterlimit="10"/>
<path d="M201.571 147.26C201.874 146.65 202.265 145.567 202.152 144.175C201.972 141.977 199.506 137.92 198.477 136.821C197.448 135.723 195.872 137.018 195.872 137.018L194.053 133.749C189.667 125.867 179.721 123.033 171.839 127.419C163.956 131.805 161.123 141.751 165.509 149.633L169.281 156.411L167.169 152.991C167.169 152.991 165.237 153.648 165.628 155.101C166.019 156.555 168.167 160.79 169.94 162.099C171.2 163.03 172.456 163.215 173.085 163.246L178.061 172.188C180.207 172.44 182.413 172.464 184.652 172.221C194.505 171.151 202.675 165.304 207.127 157.241L201.571 147.26Z" fill="black" stroke="black" stroke-miterlimit="10"/>
<path d="M193.908 139.076C190.594 133.121 183.079 130.98 177.124 134.294L174.895 135.535C168.939 138.85 166.798 146.364 170.112 152.319L181.281 172.39C182.394 172.399 183.519 172.346 184.652 172.223C193.397 171.273 200.81 166.556 205.48 159.871L193.908 139.076Z" fill="black" stroke="black" stroke-miterlimit="10"/>
<path d="M180.182 151.231C180.601 151.985 180.572 152.801 180.116 153.055C179.661 153.308 178.951 152.903 178.532 152.149C178.112 151.396 178.141 150.58 178.597 150.326C179.053 150.073 179.762 150.478 180.182 151.231Z" fill="black"/>
<path d="M189.431 146.084C189.85 146.838 189.821 147.654 189.365 147.908C188.91 148.161 188.2 147.756 187.782 147.002C187.362 146.249 187.391 145.433 187.847 145.179C188.302 144.926 189.011 145.331 189.431 146.084Z" fill="black"/>
<path d="M184.889 147.306L189.644 153.223L185.32 155.211" stroke="black" stroke-miterlimit="10"/>
<path d="M191.944 158.105C192.36 158.854 192.091 159.799 191.342 160.215C190.593 160.631 189.649 160.362 189.233 159.613C188.816 158.864 189.085 157.92 189.834 157.504C190.582 157.087 191.527 157.356 191.944 158.105Z" fill="black"/>
<path d="M173.743 150.168C173.743 150.168 174.432 147.279 178.261 147.028" stroke="black" stroke-miterlimit="10"/>
<path d="M184.231 143.496C184.231 143.496 185.239 140.429 189.281 141.312" stroke="black" stroke-miterlimit="10"/>
<path d="M186.943 167.884C186.943 167.884 190.17 168.803 192.438 168.376C194.707 167.95 196.532 166.725 197.381 165.625C198.231 164.526 199.381 160.963 199.381 160.963" stroke="black" stroke-miterlimit="10"/>
<path d="M159.952 160.031C158.206 143.957 169.82 129.512 185.894 127.766C195.178 126.758 203.914 130.213 209.978 136.404C206.65 122.212 193.189 112.401 178.329 114.016C162.256 115.762 150.641 130.207 152.388 146.281C153.126 153.069 156.134 159.057 160.569 163.584C160.296 162.427 160.084 161.243 159.952 160.031Z" fill="black" stroke="black" stroke-miterlimit="10"/>
<path d="M229.804 177.281C237.041 176.495 242.188 169.229 241.3 161.053C240.411 152.876 233.825 146.885 226.587 147.671C219.35 148.457 214.203 155.723 215.092 163.9C215.98 172.076 222.567 178.067 229.804 177.281Z" fill="black" stroke="black" stroke-miterlimit="10"/>
<path d="M258.52 150.701C258.52 150.701 251.429 148.795 239.925 148.515C228.421 148.234 221.659 149.352 219.476 155.07C217.293 160.79 217.788 170.042 224.876 173.097C228.833 174.802 234.643 173.82 238.872 172.851C243.101 171.882 253.469 167.568 256.728 162.369C259.988 157.171 260.054 153.084 258.52 150.701Z" fill="black" stroke="black" stroke-miterlimit="10"/>
<path d="M270.563 159.464C270.563 159.464 266.759 152.611 259.668 150.704C252.577 148.798 246.071 153.456 243.121 157.983C240.171 162.511 241.483 164.026 241.483 164.026C241.483 164.026 251.881 158.817 257.258 157.85C262.633 156.883 270.563 159.464 270.563 159.464Z" fill="black" stroke="black" stroke-miterlimit="10"/>
<path d="M241.219 168.643C241.219 168.643 239.551 163.853 246.271 157.641C252.99 151.429 265.342 153.657 269.363 157.809C273.383 161.962 272.904 169.281 269.718 172.814C266.532 176.347 263.339 177.458 263.339 177.458C263.339 177.458 257.081 166.793 241.219 168.643Z" fill="black" stroke="black" stroke-miterlimit="10"/>
<path d="M235.612 178.049C235.612 178.049 238.19 171.267 241.219 168.643C244.249 166.019 253.307 164.907 260.061 167.233C266.815 169.559 265.62 177.338 264.355 179.77C263.089 182.203 259.222 184.152 259.222 184.152L235.612 178.049Z" fill="black" stroke="black" stroke-miterlimit="10"/>
<path d="M236.384 176.945C236.384 176.945 235.012 177.222 233.637 178.646C232.262 180.07 231.826 180.755 229.065 182.329C226.304 183.904 223.378 183.967 224.463 186.909C225.548 189.851 229.579 189.412 231.567 188.941C233.556 188.47 234.369 187.745 235.898 186.559C237.427 185.373 238.58 177.216 238.665 176.825C238.751 176.433 236.384 176.945 236.384 176.945Z" fill="black" stroke="black" stroke-miterlimit="10"/>
<path d="M243.612 174.248C243.612 174.248 239.555 173.286 237.564 174.905C235.573 176.524 235.74 182.752 235.898 186.559C236.056 190.367 237.407 193.407 238.861 193.886C240.315 194.366 241.814 194.076 242.389 193.503C242.964 192.931 242.362 187.387 242.765 182.882C243.168 178.375 243.612 174.248 243.612 174.248Z" fill="black" stroke="black" stroke-miterlimit="10"/>
<path d="M243.612 174.248C243.612 174.248 241.796 178.652 241.267 183.171C240.739 187.69 243.186 193.798 244.137 194.333C245.088 194.868 247.747 194.706 248.366 193.364C248.985 192.022 248.533 187.461 248.604 184.786C248.674 182.112 249.961 176.363 249.77 174.599C249.578 172.834 245.604 172.629 243.612 174.248Z" fill="black" stroke="black" stroke-miterlimit="10"/>
<path d="M249.77 174.598C249.77 174.598 252.194 173.442 253.955 174.399C255.716 175.355 256.13 177.987 255.889 179.288C255.648 180.589 254.832 188.326 254.266 190.173C253.702 192.019 252.273 192.939 251.111 192.81C249.949 192.681 249.155 191.237 248.978 189.599C248.799 187.961 248.604 184.786 248.604 184.786L249.77 174.598Z" fill="black" stroke="black" stroke-miterlimit="10"/>
<path d="M255.88 176.867C255.88 176.867 259.153 177.658 260.117 178.319C261.08 178.979 261.44 181.107 260.774 184.367C260.108 187.627 259.166 189.514 257.653 189.678C256.142 189.842 254.914 187.936 254.917 186.787C254.921 185.64 256.167 179.513 255.88 176.867Z" fill="black" stroke="black" stroke-miterlimit="10"/>
<path d="M212.689 179.329C214.737 182.639 214.013 186.798 211.072 188.618C208.131 190.438 204.085 189.232 202.036 185.922C199.988 182.613 200.712 178.455 203.653 176.634C206.595 174.814 210.64 176.02 212.689 179.329Z" fill="black" stroke="black" stroke-miterlimit="10"/>
<path d="M196.563 190.47C197.999 192.79 197.491 195.706 195.429 196.981C193.367 198.258 190.531 197.412 189.095 195.092C187.659 192.773 188.167 189.857 190.229 188.581C192.291 187.304 195.127 188.151 196.563 190.47Z" fill="black"/>
<path d="M209.766 196.011C211.202 198.331 210.694 201.246 208.632 202.522C206.57 203.798 203.734 202.953 202.298 200.633C200.862 198.314 201.37 195.399 203.432 194.122C205.494 192.846 208.33 193.692 209.766 196.011Z" fill="black" stroke="black" stroke-miterlimit="10"/>
</g>
<path d="M243.136 230.824C243.136 230.824 244.037 237.636 243.984 244.551C243.932 251.467 245.555 251.612 248.852 252.379C252.149 253.146 257.77 248.678 259.21 244.184C260.65 239.688 260.513 231.026 260.513 231.026L243.136 230.824Z" fill="#DEDEDE" stroke="#263238" stroke-miterlimit="10"/>
<path d="M258.182 239.152C258.034 242.222 257.122 247.141 252.564 249.565C248.701 251.619 245.342 249.809 244.408 249.211C245.083 251.613 246.565 251.848 248.852 252.379C252.149 253.145 257.77 248.678 259.21 244.183C260.65 239.687 260.512 231.025 260.512 231.025L258.483 231.001C258.409 233.276 258.282 237.088 258.182 239.152Z" fill="#DEDEDE" stroke="#263238" stroke-miterlimit="10"/>
<path d="M227.454 237.348C227.454 237.348 232.905 237.238 240.322 234.504C247.738 231.77 256.063 225.562 254.279 219.49C252.494 213.417 242.83 211.735 239.019 212.149C235.207 212.563 230.829 213.681 230.829 213.681C230.829 213.681 231.722 230.778 227.454 237.348Z" fill="#DEDEDE" stroke="#263238" stroke-miterlimit="10"/>
<path d="M223.866 239.827C223.866 239.827 228.738 238.816 231.693 234.959C234.649 231.102 235.74 224.878 234.163 220.71C232.586 216.542 223.866 239.827 223.866 239.827Z" fill="#5825BC" stroke="#263238" stroke-miterlimit="10"/>
<path d="M194.625 199.937C194.625 199.937 191.769 213.585 197.399 226.954C203.029 240.323 215.265 243.493 223.866 239.827C232.468 236.16 234.525 224.045 234.616 216.001C234.706 207.957 234.469 204.287 234.469 204.287C234.469 204.287 205.529 207.109 194.625 199.937Z" fill="#DEDEDE" stroke="#263238" stroke-miterlimit="10"/>
<path d="M193.576 196.194C193.576 196.194 192.295 200.672 194.885 202.319C197.475 203.966 210.863 211.832 226.766 208.819C235.645 207.137 233.692 204.531 233.537 203.102C233.381 201.672 193.576 196.194 193.576 196.194Z" fill="#5825BC" stroke="#263238" stroke-miterlimit="10"/>
<path d="M191.406 182.128C191.406 182.128 191.803 193.173 193.576 196.194C195.351 199.215 218.845 208.393 230.778 205.812C242.711 203.23 262.125 192.604 264.491 184.794C266.856 176.985 260.706 164.697 254.919 158.788C249.133 152.878 246.595 151.708 246.595 151.708C246.595 151.708 232.417 170.603 214.777 176.858C197.137 183.113 191.406 182.128 191.406 182.128Z" fill="white" stroke="#263238" stroke-miterlimit="10"/>
<path d="M285.069 210.038C285.069 210.038 297.555 205.147 302.54 208.14C307.525 211.134 311.337 218.112 313.956 228.916C316.576 239.719 308.918 247.622 302.303 247.376C295.688 247.13 296.827 242.829 294.262 238.447C291.697 234.065 288.528 231.517 288.317 231.058C288.107 230.598 291.263 216.757 285.069 210.038Z" fill="white" stroke="#263238" stroke-miterlimit="10"/>
<path d="M302.54 208.14C301.207 207.341 299.338 207.107 297.315 207.19C299.841 209.06 304.833 213.628 308.097 222.321C312.619 234.364 310.575 240.693 308.258 243.033C305.941 245.374 301.053 246.227 298.936 245.975C298.589 245.934 298.184 245.885 297.751 245.834C298.658 246.723 300.017 247.292 302.302 247.377C308.918 247.623 316.576 239.72 313.956 228.917C311.337 218.112 307.526 211.133 302.54 208.14Z" fill="white" stroke="#263238" stroke-miterlimit="10"/>
<path d="M258.672 240.706C258.672 240.706 270.448 244.086 281.38 239.686C292.311 235.284 298.751 227.996 296.338 219.099C293.925 210.201 289.392 209.89 279.441 210.007C269.491 210.123 267.494 210.983 267.494 210.983C267.494 210.983 267.169 236.087 258.672 240.706Z" fill="white" stroke="#263238" stroke-miterlimit="10"/>
<path d="M271.646 198.131C272.778 186.14 264.723 175.573 253.655 174.528C242.587 173.483 232.697 182.356 231.564 194.347C230.432 206.337 238.487 216.904 249.555 217.949C260.623 218.994 270.514 210.121 271.646 198.131Z" fill="#5825BC" stroke="#263238" stroke-miterlimit="10"/>
<path d="M275.91 223.32C276.937 212.444 269.631 202.859 259.592 201.911C249.552 200.963 240.581 209.011 239.555 219.887C238.528 230.763 245.834 240.349 255.873 241.296C265.913 242.244 274.884 234.196 275.91 223.32Z" fill="#5825BC" stroke="#263238" stroke-miterlimit="10"/>
<path d="M273.372 210.344C273.372 210.344 274.191 192.74 265.588 183.068C256.985 173.397 237.435 181.305 234.189 195.799C230.943 210.293 237.805 232.045 246.772 237.659C255.738 243.274 263.337 237.787 268.437 230.002C273.537 222.218 273.372 210.344 273.372 210.344Z" fill="white" stroke="#263238" stroke-miterlimit="10"/>
<path d="M151.874 161.028C151.874 161.028 145.068 177.504 143.392 182.204C141.717 186.903 139.961 192.194 140.001 195.249C140.042 198.305 141.919 202.181 143.39 202.313C144.862 202.445 145.92 201.456 146.133 199.392C146.346 197.329 146.252 196.464 147.295 195.331C148.338 194.198 151.59 191.951 152.007 191.76C152.424 191.568 152.74 193.137 151.76 194.846C150.78 196.555 148.617 198.102 149.972 199.849C151.327 201.596 154.019 199.555 155.462 198.086C156.906 196.618 158.384 194.126 158.981 191.584C159.579 189.042 159.289 183.682 159.289 183.682L171.315 172.322C171.315 172.322 155.371 170.411 151.874 161.028Z" fill="#DEDEDE" stroke="#263238" stroke-miterlimit="10"/>
<path d="M152.627 193.44C152.627 193.44 152.445 195.792 156.829 195.898" stroke="#263238" stroke-miterlimit="10"/>
<path d="M141.05 191.492C141.05 191.492 142.27 196.022 147.295 195.33" stroke="#263238" stroke-miterlimit="10"/>
<path d="M140.652 197.808C140.652 197.808 143.622 200.111 145.882 197.615" stroke="#263238" stroke-miterlimit="10"/>
<path d="M146.822 175.2C146.822 175.2 146.425 184.228 159.29 183.682" stroke="#263238" stroke-miterlimit="10"/>
<path d="M155.278 156.141C155.278 156.141 152.078 156.198 151.874 161.028C151.671 165.858 155.54 173.307 162.959 174.541C170.379 175.774 174.997 171.338 176.35 167.695C177.703 164.051 160.356 153.258 155.278 156.141Z" fill="#5825BC" stroke="#263238" stroke-miterlimit="10"/>
<path d="M163.612 142.996C163.612 142.996 155.751 152.448 154.38 157.259C153.008 162.071 156.442 170.877 165.158 171.971C173.874 173.064 179.058 165.798 179.058 165.798L163.612 142.996Z" fill="#DEDEDE" stroke="#263238" stroke-miterlimit="10"/>
<path d="M168.113 135.367C168.113 135.367 162.495 140.117 162.106 147.827C161.716 155.536 168.816 164.425 178.079 163.571C187.341 162.72 175.741 134.998 168.113 135.367Z" fill="#5825BC" stroke="#263238" stroke-miterlimit="10"/>
<path d="M171.985 141.079C171.985 141.079 167.861 146.044 170.225 154.384C172.588 162.724 178.479 167.33 178.479 167.33C178.479 167.33 189.877 183.722 194.67 186.262C199.463 188.801 207.925 188.902 225.091 181.938C242.258 174.973 249.017 164.768 251.653 159.527C254.29 154.287 238.848 130.173 233.513 126.673C228.179 123.172 221.206 122.035 216.167 122.583C211.126 123.131 206.453 124.367 206.453 124.367L171.985 141.079Z" fill="#5825BC" stroke="#263238" stroke-miterlimit="10"/>
<path d="M168.935 138.338C168.935 138.338 164.812 143.303 167.175 151.643C169.539 159.983 175.43 164.589 175.43 164.589C175.43 164.589 186.828 180.981 191.621 183.521C196.414 186.06 204.876 186.161 222.042 179.197C239.208 172.233 245.968 162.027 248.604 156.786C251.24 151.546 235.798 127.433 230.464 123.932C225.13 120.431 218.158 119.294 213.117 119.842C208.076 120.39 203.402 121.626 203.402 121.626L168.935 138.338Z" fill="white" stroke="#263238" stroke-miterlimit="10"/>
<path d="M210.151 128.98C214.074 115.211 206.092 100.868 192.322 96.9448C178.552 93.0216 164.21 101.004 160.287 114.773C156.363 128.543 164.346 142.886 178.115 146.809C191.885 150.732 206.228 142.75 210.151 128.98Z" fill="#5825BC" stroke="#263238" stroke-miterlimit="10"/>
<path d="M204.484 133.246C214.497 120.551 212.322 102.143 199.627 92.1298C186.932 82.117 168.524 84.2914 158.511 96.9865C148.498 109.682 150.672 128.09 163.367 138.103C176.062 148.116 194.471 145.941 204.484 133.246Z" fill="#ABABAB" stroke="#263238" stroke-miterlimit="10"/>
<path d="M201.571 119.26C201.874 118.65 202.265 117.567 202.152 116.175C201.972 113.977 199.506 109.92 198.477 108.821C197.448 107.723 195.872 109.018 195.872 109.018L194.053 105.749C189.667 97.8666 179.721 95.0329 171.839 99.4191C163.956 103.805 161.123 113.751 165.509 121.633L169.281 128.411L167.169 124.991C167.169 124.991 165.237 125.648 165.628 127.101C166.019 128.555 168.167 132.79 169.94 134.099C171.2 135.03 172.456 135.215 173.085 135.246L178.061 144.188C180.207 144.44 182.413 144.464 184.652 144.221C194.505 143.151 202.675 137.304 207.127 129.241L201.571 119.26Z" fill="#263238" stroke="#263238" stroke-miterlimit="10"/>
<path d="M193.908 111.076C190.594 105.121 183.079 102.98 177.124 106.294L174.895 107.535C168.939 110.85 166.798 118.364 170.112 124.319L181.281 144.39C182.394 144.399 183.519 144.346 184.652 144.223C193.397 143.273 200.81 138.556 205.48 131.871L193.908 111.076Z" fill="white" stroke="#263238" stroke-miterlimit="10"/>
<path d="M180.182 123.231C180.601 123.985 180.572 124.801 180.116 125.055C179.661 125.308 178.951 124.903 178.532 124.149C178.112 123.396 178.141 122.58 178.597 122.326C179.053 122.073 179.762 122.478 180.182 123.231Z" fill="#263238"/>
<path d="M189.431 118.084C189.85 118.838 189.821 119.654 189.365 119.908C188.91 120.161 188.2 119.756 187.782 119.002C187.362 118.249 187.391 117.433 187.847 117.179C188.302 116.926 189.011 117.331 189.431 118.084Z" fill="#263238"/>
<path d="M184.889 119.306L189.644 125.223L185.32 127.211" stroke="#263238" stroke-miterlimit="10"/>
<path d="M191.944 130.105C192.36 130.854 192.091 131.799 191.342 132.215C190.593 132.631 189.649 132.362 189.233 131.613C188.816 130.864 189.085 129.92 189.834 129.504C190.582 129.087 191.527 129.356 191.944 130.105Z" fill="#263238"/>
<path d="M173.743 122.168C173.743 122.168 174.432 119.279 178.261 119.028" stroke="#263238" stroke-miterlimit="10"/>
<path d="M184.231 115.496C184.231 115.496 185.239 112.429 189.281 113.312" stroke="#263238" stroke-miterlimit="10"/>
<path d="M186.943 139.884C186.943 139.884 190.17 140.803 192.438 140.376C194.707 139.95 196.532 138.725 197.381 137.625C198.231 136.526 199.381 132.963 199.381 132.963" stroke="#263238" stroke-miterlimit="10"/>
<path d="M159.952 132.031C158.206 115.957 169.82 101.512 185.894 99.7658C195.178 98.7575 203.914 102.213 209.978 108.404C206.65 94.2121 193.189 84.4014 178.329 86.0157C162.256 87.762 150.641 102.207 152.388 118.281C153.126 125.069 156.134 131.057 160.569 135.584C160.296 134.427 160.084 133.243 159.952 132.031Z" fill="white" stroke="#263238" stroke-miterlimit="10"/>
<path d="M229.804 149.281C237.041 148.495 242.188 141.229 241.3 133.053C240.411 124.876 233.825 118.885 226.587 119.671C219.35 120.457 214.203 127.723 215.092 135.9C215.98 144.076 222.567 150.067 229.804 149.281Z" fill="#5825BC" stroke="#263238" stroke-miterlimit="10"/>
<path d="M258.52 122.701C258.52 122.701 251.429 120.795 239.925 120.515C228.421 120.234 221.659 121.352 219.476 127.07C217.293 132.79 217.788 142.042 224.876 145.097C228.833 146.802 234.643 145.82 238.872 144.851C243.101 143.882 253.469 139.568 256.728 134.369C259.988 129.171 260.054 125.084 258.52 122.701Z" fill="white" stroke="#263238" stroke-miterlimit="10"/>
<path d="M270.563 131.464C270.563 131.464 266.759 124.611 259.668 122.704C252.577 120.798 246.071 125.456 243.121 129.983C240.171 134.511 241.483 136.026 241.483 136.026C241.483 136.026 251.881 130.817 257.258 129.85C262.633 128.883 270.563 131.464 270.563 131.464Z" fill="#5825BC" stroke="#263238" stroke-miterlimit="10"/>
<path d="M241.219 140.643C241.219 140.643 239.551 135.853 246.271 129.641C252.99 123.429 265.342 125.657 269.363 129.809C273.383 133.962 272.904 141.281 269.718 144.814C266.532 148.347 263.339 149.458 263.339 149.458C263.339 149.458 257.081 138.793 241.219 140.643Z" fill="white" stroke="#263238" stroke-miterlimit="10"/>
<path d="M235.612 150.049C235.612 150.049 238.19 143.267 241.219 140.643C244.249 138.019 253.307 136.907 260.061 139.233C266.815 141.559 265.62 149.338 264.355 151.77C263.089 154.203 259.222 156.152 259.222 156.152L235.612 150.049Z" fill="white" stroke="#263238" stroke-miterlimit="10"/>
<path d="M236.384 148.945C236.384 148.945 235.012 149.222 233.637 150.646C232.262 152.07 231.826 152.755 229.065 154.329C226.304 155.904 223.378 155.967 224.463 158.909C225.548 161.851 229.579 161.412 231.567 160.941C233.556 160.47 234.369 159.745 235.898 158.559C237.427 157.373 238.58 149.216 238.665 148.825C238.751 148.433 236.384 148.945 236.384 148.945Z" fill="white" stroke="#263238" stroke-miterlimit="10"/>
<path d="M243.612 146.248C243.612 146.248 239.555 145.286 237.564 146.905C235.573 148.524 235.74 154.752 235.898 158.559C236.056 162.367 237.407 165.407 238.861 165.886C240.315 166.366 241.814 166.076 242.389 165.503C242.964 164.931 242.362 159.387 242.765 154.882C243.168 150.375 243.612 146.248 243.612 146.248Z" fill="white" stroke="#263238" stroke-miterlimit="10"/>
<path d="M243.612 146.248C243.612 146.248 241.796 150.652 241.267 155.171C240.739 159.69 243.186 165.798 244.137 166.333C245.088 166.868 247.747 166.706 248.366 165.364C248.985 164.022 248.533 159.461 248.604 156.786C248.674 154.112 249.961 148.363 249.77 146.599C249.578 144.834 245.604 144.629 243.612 146.248Z" fill="white" stroke="#263238" stroke-miterlimit="10"/>
<path d="M249.77 146.598C249.77 146.598 252.194 145.442 253.955 146.399C255.716 147.355 256.13 149.987 255.889 151.288C255.648 152.589 254.832 160.326 254.266 162.173C253.702 164.019 252.273 164.939 251.111 164.81C249.949 164.681 249.155 163.237 248.978 161.599C248.799 159.961 248.604 156.786 248.604 156.786L249.77 146.598Z" fill="white" stroke="#263238" stroke-miterlimit="10"/>
<path d="M255.88 148.867C255.88 148.867 259.153 149.658 260.117 150.319C261.08 150.979 261.44 153.107 260.774 156.367C260.108 159.627 259.166 161.514 257.653 161.678C256.142 161.842 254.914 159.936 254.917 158.787C254.921 157.64 256.167 151.513 255.88 148.867Z" fill="white" stroke="#263238" stroke-miterlimit="10"/>
<path d="M212.689 151.329C214.737 154.639 214.013 158.798 211.072 160.618C208.131 162.438 204.085 161.232 202.036 157.922C199.988 154.613 200.712 150.455 203.653 148.634C206.595 146.814 210.64 148.02 212.689 151.329Z" fill="#5825BC" stroke="#263238" stroke-miterlimit="10"/>
<path d="M196.563 162.47C197.999 164.79 197.491 167.706 195.429 168.981C193.367 170.258 190.531 169.412 189.095 167.092C187.659 164.773 188.167 161.857 190.229 160.581C192.291 159.304 195.127 160.151 196.563 162.47Z" fill="#263238"/>
<path d="M209.766 168.011C211.202 170.331 210.694 173.246 208.632 174.522C206.57 175.798 203.734 174.953 202.298 172.633C200.862 170.314 201.37 167.399 203.432 166.122C205.494 164.846 208.33 165.692 209.766 168.011Z" fill="#ABABAB" stroke="#263238" stroke-miterlimit="10"/>
</svg>
